<?xml version="1.0" encoding="UTF-8"?>
<svg id="Layer_2" data-name="Layer 2" xmlns="http://www.w3.org/2000/svg" viewBox="0 0 266.71 278.78">
  <defs>
    <style>
      .cls-1 {
        fill: #fff;
      }
    </style>
  </defs>
  <g id="Layer_1-2" data-name="Layer 1">
    <g>
      <path d="M48.93,3.18c31.4-4.29,133.48-4.08,165.41-.32,19.62,2.31,39.35,16.83,46.31,35.36,7.34,19.54,6.97,157.92,4.33,184.68-2.13,21.57-15.5,42.53-36.29,50.26-18.23,6.78-149.12,6.53-174.05,3.99-27.4-2.79-49.78-23.13-52.97-50.64C-1.15,202.14-.82,52.57,5.93,35.76,12.46,19.48,31.57,5.55,48.93,3.18ZM208.5,80.49c7.7-11.49-29.8-37.74-39.88-41.67C44.8-9.47,2.06,182.24,131.5,189.3c18.15.99,30.94-13.77,16.48-25.01-14.93-11.61-45.22,1.37-62.42-30.22-34.95-64.18,72.97-103.43,102.23-41.19l20.71-12.39ZM125.69,100.63c-11.04,1.62-17.53,14.72-9.48,23.5,4.18,4.56,34.95,9.69,44.95,14.78,45.63,23.24,21.87,79.25-22.42,83.3-28.04,2.56-49.1-8.68-65.98-30.23-25.6,12.32-24.06,18.46-4.09,35.76,67.62,58.56,179.47-6.59,136.74-85.54-11.92-22.02-55.33-45.15-79.73-41.57Z"/>
      <g>
        <path class="cls-1" d="M208.5,80.49l-20.71,12.39c-29.26-62.24-137.18-22.99-102.23,41.19,17.2,31.59,47.49,18.61,62.42,30.22,14.46,11.24,1.67,26-16.48,25.01C2.06,182.24,44.8-9.47,168.62,38.82c10.07,3.93,47.57,30.18,39.88,41.67Z"/>
        <path class="cls-1" d="M125.69,100.63c24.4-3.58,67.81,19.55,79.73,41.57,42.74,78.94-69.12,144.1-136.74,85.54-19.98-17.3-21.52-23.44,4.09-35.76,16.88,21.55,37.94,32.79,65.98,30.23,44.29-4.04,68.05-60.06,22.42-83.3-10-5.09-40.77-10.22-44.95-14.78-8.05-8.78-1.57-21.88,9.48-23.5Z"/>
      </g>
    </g>
  </g>
</svg>